<svg width="40" height="40" viewBox="0 0 40 40" fill="none" xmlns="http://www.w3.org/2000/svg">
<path d="M14.2071 29.7071L13.6768 29.1768L13.6768 29.1768L14.2071 29.7071ZM14.2071 17.7929L13.6768 18.3232L13.6768 18.3232L14.2071 17.7929ZM22.0001 24.5001L22.7501 24.5001V24.5001H22.0001ZM30.0001 22.0002L30.7501 22.0004V22.0002H30.0001ZM29.9987 27.5006L30.7487 27.5008L29.9987 27.5006ZM22.0001 19.174L21.2501 19.174C21.2501 19.4959 21.4555 19.7818 21.7605 19.8847C22.0655 19.9875 22.4021 19.8842 22.597 19.628L22.0001 19.174ZM22 28L22.75 28L22 28ZM25.7929 29.2072L25.2625 29.7376L25.2625 29.7376L25.7929 29.2072ZM21.7071 29.7071L21.1768 29.1768H21.1768L21.7071 29.7071ZM21.505 17.6369L21.1263 18.2842H21.1263L21.505 17.6369ZM21.8632 17.995L22.5105 17.6162L21.8632 17.995ZM12 18.25H12.5V16.75H12V18.25ZM13.75 19.5V28H15.25V19.5H13.75ZM12.5 29.25H12V30.75H12.5V29.25ZM10.75 28V19.5H9.25V28H10.75ZM12 29.25C11.5074 29.25 11.2134 29.2484 11.0027 29.2201C10.9061 29.2071 10.8577 29.1918 10.836 29.1828C10.8309 29.1808 10.8276 29.1791 10.8257 29.1781C10.8238 29.1771 10.8229 29.1766 10.8228 29.1765C10.8228 29.1765 10.823 29.1766 10.8234 29.1769C10.8237 29.1772 10.8237 29.1772 10.8232 29.1768L9.76256 30.2374C10.0716 30.5465 10.4473 30.6589 10.8028 30.7067C11.1367 30.7516 11.5498 30.75 12 30.75V29.25ZM9.25 28C9.25 28.4502 9.24841 28.8633 9.2933 29.1972C9.34109 29.5527 9.45354 29.9284 9.76256 30.2374L10.8232 29.1768C10.8228 29.1763 10.8228 29.1763 10.8231 29.1767C10.8234 29.177 10.8235 29.1772 10.8235 29.1772C10.8234 29.1771 10.8229 29.1762 10.8219 29.1743C10.8209 29.1724 10.8192 29.1691 10.8172 29.164C10.8082 29.1423 10.7929 29.0939 10.7799 28.9973C10.7516 28.7866 10.75 28.4926 10.75 28H9.25ZM13.75 28C13.75 28.4926 13.7484 28.7866 13.7201 28.9973C13.7071 29.0939 13.6918 29.1423 13.6828 29.164C13.6808 29.1691 13.6791 29.1724 13.6781 29.1743C13.6771 29.1762 13.6766 29.1771 13.6765 29.1772C13.6765 29.1772 13.6766 29.177 13.6769 29.1766C13.6772 29.1763 13.6772 29.1763 13.6768 29.1768L14.7374 30.2374C15.0465 29.9284 15.1589 29.5527 15.2067 29.1972C15.2516 28.8633 15.25 28.4502 15.25 28H13.75ZM12.5 30.75C12.9502 30.75 13.3633 30.7516 13.6972 30.7067C14.0527 30.6589 14.4284 30.5465 14.7374 30.2374L13.6768 29.1768C13.6763 29.1772 13.6763 29.1772 13.6766 29.1769C13.677 29.1766 13.6772 29.1765 13.6772 29.1765C13.6771 29.1766 13.6762 29.1771 13.6743 29.1781C13.6724 29.1791 13.6691 29.1808 13.664 29.1828C13.6423 29.1918 13.5939 29.2071 13.4973 29.2201C13.2866 29.2484 12.9926 29.25 12.5 29.25V30.75ZM12.5 18.25C12.9926 18.25 13.2866 18.2516 13.4973 18.2799C13.5939 18.2929 13.6423 18.3082 13.664 18.3172C13.6691 18.3192 13.6724 18.3209 13.6743 18.3219C13.6762 18.3229 13.6771 18.3234 13.6772 18.3235C13.6772 18.3235 13.677 18.3234 13.6766 18.3231C13.6763 18.3228 13.6763 18.3228 13.6768 18.3232L14.7374 17.2626C14.4284 16.9535 14.0527 16.8411 13.6972 16.7933C13.3633 16.7484 12.9502 16.75 12.5 16.75V18.25ZM15.25 19.5C15.25 19.0498 15.2516 18.6367 15.2067 18.3028C15.1589 17.9473 15.0465 17.5716 14.7374 17.2626L13.6768 18.3232C13.6772 18.3237 13.6772 18.3237 13.6769 18.3234C13.6766 18.323 13.6765 18.3228 13.6765 18.3228C13.6766 18.3229 13.6771 18.3238 13.6781 18.3257C13.6791 18.3276 13.6808 18.3309 13.6828 18.336C13.6918 18.3577 13.7071 18.4061 13.7201 18.5027C13.7484 18.7134 13.75 19.0074 13.75 19.5H15.25ZM12 16.75C11.5498 16.75 11.1367 16.7484 10.8028 16.7933C10.4473 16.8411 10.0716 16.9535 9.76256 17.2626L10.8232 18.3232C10.8237 18.3228 10.8237 18.3228 10.8234 18.3231C10.823 18.3234 10.8228 18.3235 10.8228 18.3235C10.8229 18.3234 10.8238 18.3229 10.8257 18.3219C10.8276 18.3209 10.8309 18.3192 10.836 18.3172C10.8577 18.3082 10.9061 18.2929 11.0027 18.2799C11.2134 18.2516 11.5074 18.25 12 18.25V16.75ZM10.75 19.5C10.75 19.0074 10.7516 18.7134 10.7799 18.5027C10.7929 18.4061 10.8082 18.3577 10.8172 18.336C10.8192 18.3309 10.8209 18.3276 10.8219 18.3257C10.8229 18.3238 10.8234 18.3229 10.8235 18.3228C10.8235 18.3228 10.8234 18.323 10.8231 18.3234C10.8228 18.3237 10.8228 18.3237 10.8232 18.3232L9.76256 17.2626C9.45354 17.5716 9.34109 17.9473 9.2933 18.3028C9.24841 18.6367 9.25 19.0498 9.25 19.5H10.75ZM13.75 12.25C13.75 13.0784 13.0784 13.75 12.25 13.75V15.25C13.9069 15.25 15.25 13.9069 15.25 12.25H13.75ZM12.25 13.75C11.4216 13.75 10.75 13.0784 10.75 12.25H9.25C9.25 13.9069 10.5931 15.25 12.25 15.25V13.75ZM10.75 12.25C10.75 11.4216 11.4216 10.75 12.25 10.75V9.25C10.5931 9.25 9.25 10.5931 9.25 12.25H10.75ZM12.25 10.75C13.0784 10.75 13.75 11.4216 13.75 12.25H15.25C15.25 10.5931 13.9069 9.25 12.25 9.25V10.75ZM19.5 18.25H20.326V16.75H19.5V18.25ZM20 29.25H19.5V30.75H20V29.25ZM18.25 28V19.5H16.75V28H18.25ZM22.7501 24.5001C22.7501 23.7288 22.8768 23.1388 23.1015 22.7658C23.2926 22.4485 23.5706 22.2501 24.0879 22.2501V20.7501C23.0454 20.7501 22.2794 21.2234 21.8166 21.9918C21.3873 22.7046 21.2501 23.6146 21.2501 24.5001H22.7501ZM25.2968 18.2502C27.2808 18.2502 29.2501 19.9855 29.2501 22.0002H30.7501C30.7501 19.0445 27.992 16.7502 25.2968 16.7502V18.2502ZM27.9987 28.7501H27.5V30.2501H27.9987V28.7501ZM29.2501 22.0001L29.2487 27.5004L30.7487 27.5008L30.7501 22.0004L29.2501 22.0001ZM22.597 19.628C23.2443 18.7771 24.2192 18.2502 25.2968 18.2502V16.7502C23.7106 16.7502 22.309 17.5291 21.4031 18.7199L22.597 19.628ZM26.25 27.5001V23.0001H24.75V27.5001H26.25ZM26.25 23.0001C26.25 21.8008 25.324 20.7501 24.0879 20.7501V22.2501C24.4115 22.2501 24.75 22.5426 24.75 23.0001H26.25ZM21.2501 24.5001L21.25 28L22.75 28L22.7501 24.5001L21.2501 24.5001ZM27.5 28.7501C27.0074 28.7501 26.7133 28.7485 26.5026 28.7202C26.4061 28.7072 26.3577 28.6919 26.3359 28.683C26.3309 28.6809 26.3276 28.6793 26.3256 28.6783C26.3237 28.6773 26.3229 28.6767 26.3228 28.6767C26.3227 28.6766 26.323 28.6768 26.3233 28.677C26.3237 28.6773 26.3236 28.6774 26.3232 28.6769L25.2625 29.7376C25.5715 30.0466 25.9473 30.159 26.3028 30.2068C26.6367 30.2517 27.0498 30.2501 27.5 30.2501V28.7501ZM24.75 27.5001C24.75 27.9503 24.7484 28.3634 24.7933 28.6973C24.8411 29.0528 24.9535 29.4285 25.2625 29.7376L26.3232 28.6769C26.3227 28.6764 26.3228 28.6764 26.323 28.6768C26.3233 28.6771 26.3235 28.6774 26.3234 28.6773C26.3234 28.6772 26.3228 28.6764 26.3218 28.6744C26.3208 28.6725 26.3192 28.6692 26.3171 28.6642C26.3082 28.6424 26.2929 28.594 26.2799 28.4975C26.2516 28.2867 26.25 27.9927 26.25 27.5001H24.75ZM27.9987 30.2501C28.4488 30.2501 28.8618 30.2517 29.1957 30.2068C29.5511 30.1591 29.9268 30.0466 30.2358 29.7377L29.1752 28.6769C29.1748 28.6774 29.1748 28.6774 29.1751 28.6771C29.1755 28.6768 29.1757 28.6766 29.1756 28.6767C29.1755 28.6767 29.1747 28.6773 29.1728 28.6783C29.1709 28.6793 29.1675 28.6809 29.1625 28.683C29.1407 28.6919 29.0924 28.7072 28.9958 28.7202C28.7852 28.7485 28.4912 28.7501 27.9987 28.7501V30.2501ZM29.2487 27.5004C29.2486 27.9929 29.2469 28.2869 29.2186 28.4975C29.2056 28.5941 29.1903 28.6424 29.1813 28.6642C29.1792 28.6692 29.1776 28.6725 29.1766 28.6745C29.1756 28.6764 29.1751 28.6772 29.175 28.6773C29.175 28.6774 29.1751 28.6771 29.1754 28.6768C29.1757 28.6764 29.1757 28.6765 29.1752 28.6769L30.2358 29.7377C30.5448 29.4288 30.6573 29.0531 30.7052 28.6977C30.7501 28.3639 30.7486 27.9509 30.7487 27.5008L29.2487 27.5004ZM19.5 29.25C19.0074 29.25 18.7134 29.2484 18.5027 29.2201C18.4061 29.2071 18.3577 29.1918 18.336 29.1828C18.3309 29.1808 18.3276 29.1791 18.3257 29.1781C18.3238 29.1771 18.3229 29.1766 18.3228 29.1765C18.3228 29.1765 18.323 29.1766 18.3234 29.1769C18.3237 29.1772 18.3237 29.1772 18.3232 29.1768L17.2626 30.2374C17.5716 30.5465 17.9473 30.6589 18.3028 30.7067C18.6367 30.7516 19.0498 30.75 19.5 30.75V29.25ZM16.75 28C16.75 28.4502 16.7484 28.8633 16.7933 29.1972C16.8411 29.5527 16.9535 29.9284 17.2626 30.2374L18.3232 29.1768C18.3228 29.1763 18.3228 29.1763 18.3231 29.1767C18.3234 29.177 18.3235 29.1772 18.3235 29.1772C18.3234 29.1771 18.3229 29.1762 18.3219 29.1743C18.3209 29.1724 18.3192 29.1691 18.3172 29.164C18.3082 29.1423 18.2929 29.0939 18.2799 28.9973C18.2516 28.7866 18.25 28.4926 18.25 28H16.75ZM20 30.75C20.4502 30.75 20.8633 30.7516 21.1972 30.7067C21.5527 30.6589 21.9284 30.5465 22.2374 30.2374L21.1768 29.1768C21.1763 29.1772 21.1763 29.1772 21.1767 29.1769C21.177 29.1766 21.1772 29.1765 21.1772 29.1765C21.1771 29.1766 21.1762 29.1771 21.1743 29.1781C21.1724 29.1792 21.1691 29.1808 21.164 29.1828C21.1423 29.1918 21.0939 29.2071 20.9973 29.2201C20.7866 29.2484 20.4926 29.25 20 29.25V30.75ZM21.25 28C21.25 28.4926 21.2484 28.7866 21.2201 28.9973C21.2071 29.0939 21.1918 29.1423 21.1829 29.164C21.1808 29.1691 21.1792 29.1724 21.1781 29.1743C21.1772 29.1762 21.1766 29.1771 21.1765 29.1772C21.1765 29.1772 21.1767 29.177 21.1769 29.1767C21.1772 29.1763 21.1772 29.1763 21.1768 29.1768L22.2374 30.2374C22.5465 29.9284 22.6589 29.5527 22.7067 29.1972C22.7516 28.8633 22.75 28.4502 22.75 28L21.25 28ZM20.326 18.25C20.655 18.25 20.851 18.2507 20.9956 18.264C21.1297 18.2763 21.1435 18.2943 21.1263 18.2842L21.8837 16.9895C21.6326 16.8426 21.3719 16.7922 21.1325 16.7702C20.9036 16.7493 20.6271 16.75 20.326 16.75V18.25ZM22.7501 19.1739C22.75 18.8729 22.7508 18.5964 22.7298 18.3675C22.7079 18.1281 22.6574 17.8674 22.5105 17.6162L21.2158 18.3737C21.2057 18.3565 21.2238 18.3703 21.2361 18.5044C21.2493 18.649 21.25 18.845 21.2501 19.174L22.7501 19.1739ZM21.1263 18.2842C21.1633 18.3059 21.1941 18.3367 21.2158 18.3737L22.5105 17.6162C22.3588 17.357 22.143 17.1412 21.8837 16.9895L21.1263 18.2842ZM19.5 16.75C19.0498 16.75 18.6367 16.7484 18.3028 16.7933C17.9473 16.8411 17.5716 16.9535 17.2626 17.2626L18.3232 18.3232C18.3237 18.3228 18.3237 18.3228 18.3234 18.3231C18.323 18.3234 18.3228 18.3235 18.3228 18.3235C18.3229 18.3234 18.3238 18.3229 18.3257 18.3219C18.3276 18.3209 18.3309 18.3192 18.336 18.3172C18.3577 18.3082 18.4061 18.2929 18.5027 18.2799C18.7134 18.2516 19.0074 18.25 19.5 18.25V16.75ZM18.25 19.5C18.25 19.0074 18.2516 18.7134 18.2799 18.5027C18.2929 18.4061 18.3082 18.3577 18.3172 18.336C18.3192 18.3309 18.3209 18.3276 18.3219 18.3257C18.3229 18.3238 18.3234 18.3229 18.3235 18.3228C18.3235 18.3228 18.3234 18.323 18.3231 18.3234C18.3228 18.3237 18.3228 18.3237 18.3232 18.3232L17.2626 17.2626C16.9535 17.5716 16.8411 17.9473 16.7933 18.3028C16.7484 18.6367 16.75 19.0498 16.75 19.5H18.25Z" fill="white"/>
</svg>
