<svg width="40" height="40" viewBox="0 0 40 40" fill="none" xmlns="http://www.w3.org/2000/svg">
<path d="M25.5078 15.5C26.0601 15.5 26.5078 15.0523 26.5078 14.5C26.5078 13.9477 26.0601 13.5 25.5078 13.5V15.5ZM25.4988 13.5C24.9465 13.5 24.4988 13.9477 24.4988 14.5C24.4988 15.0523 24.9465 15.5 25.4988 15.5V13.5ZM20 28.5C17.7326 28.5 16.1326 28.4979 14.9212 28.335C13.7386 28.176 13.0772 27.8805 12.5983 27.4016L11.1841 28.8159C12.0965 29.7283 13.2503 30.1284 14.6547 30.3172C16.0303 30.5021 17.7891 30.5 20 30.5V28.5ZM9.5 20C9.5 22.2109 9.49788 23.9697 9.68282 25.3453C9.87164 26.7497 10.2717 27.9035 11.1841 28.8159L12.5983 27.4016C12.1195 26.9228 11.824 26.2614 11.665 25.0788C11.5021 23.8674 11.5 22.2674 11.5 20H9.5ZM28.5 20C28.5 22.2674 28.4979 23.8674 28.335 25.0788C28.176 26.2614 27.8805 26.9228 27.4016 27.4016L28.8159 28.8159C29.7283 27.9035 30.1284 26.7497 30.3172 25.3453C30.5021 23.9697 30.5 22.2109 30.5 20H28.5ZM20 30.5C22.2109 30.5 23.9697 30.5021 25.3453 30.3172C26.7497 30.1284 27.9035 29.7283 28.8159 28.8159L27.4016 27.4016C26.9228 27.8805 26.2614 28.176 25.0788 28.335C23.8674 28.4979 22.2674 28.5 20 28.5V30.5ZM20 11.5C22.2674 11.5 23.8674 11.5021 25.0788 11.665C26.2614 11.824 26.9228 12.1195 27.4016 12.5983L28.8159 11.1841C27.9035 10.2717 26.7497 9.87164 25.3453 9.68282C23.9697 9.49788 22.2109 9.5 20 9.5V11.5ZM30.5 20C30.5 17.7891 30.5021 16.0303 30.3172 14.6547C30.1284 13.2503 29.7283 12.0965 28.8159 11.1841L27.4016 12.5983C27.8805 13.0772 28.176 13.7386 28.335 14.9212C28.4979 16.1326 28.5 17.7326 28.5 20H30.5ZM20 9.5C17.7891 9.5 16.0303 9.49788 14.6547 9.68282C13.2503 9.87164 12.0965 10.2717 11.1841 11.1841L12.5983 12.5983C13.0772 12.1195 13.7386 11.824 14.9212 11.665C16.1326 11.5021 17.7326 11.5 20 11.5V9.5ZM11.5 20C11.5 17.7326 11.5021 16.1326 11.665 14.9212C11.824 13.7386 12.1195 13.0772 12.5983 12.5983L11.1841 11.1841C10.2717 12.0965 9.87164 13.2503 9.68282 14.6547C9.49788 16.0303 9.5 17.7891 9.5 20H11.5ZM23.5 20C23.5 21.933 21.933 23.5 20 23.5V25.5C23.0376 25.5 25.5 23.0376 25.5 20H23.5ZM20 23.5C18.067 23.5 16.5 21.933 16.5 20H14.5C14.5 23.0376 16.9624 25.5 20 25.5V23.5ZM16.5 20C16.5 18.067 18.067 16.5 20 16.5V14.5C16.9624 14.5 14.5 16.9624 14.5 20H16.5ZM20 16.5C21.933 16.5 23.5 18.067 23.5 20H25.5C25.5 16.9624 23.0376 14.5 20 14.5V16.5ZM25.5078 13.5H25.4988V15.5H25.5078V13.5Z" fill="white"/>
</svg>
