<svg width="40" height="40" viewBox="0 0 40 40" fill="none" xmlns="http://www.w3.org/2000/svg">
<path d="M25.1534 27.9934L25.3032 28.7283L25.1534 27.9934ZM14.8466 27.9934L14.6968 28.7283L14.8466 27.9934ZM25.1534 12.0066L25.3032 11.2717L25.1534 12.0066ZM14.8466 12.0066L14.6968 11.2717L14.8466 12.0066ZM29.0834 13.7994L28.4914 14.2598L29.0834 13.7994ZM10.9166 13.7994L10.3246 13.3389H10.3246L10.9166 13.7994ZM21.4449 22.2241L21.0829 21.5672H21.0829L21.4449 22.2241ZM23.9621 20.3129L24.6906 20.4913V20.4913L23.9621 20.3129ZM21.4449 17.7759L21.8068 17.1191L21.4449 17.7759ZM23.9621 19.6871L24.6906 19.5087V19.5087L23.9621 19.6871ZM17.538 23.1438L17.0665 23.7271L17.0665 23.7271L17.538 23.1438ZM18.1728 23.4615L18.363 22.736L18.1728 23.4615ZM17.538 16.8562L17.0665 16.2729H17.0665L17.538 16.8562ZM18.1728 16.5385L17.9827 15.813L18.1728 16.5385ZM25.0036 27.2585C23.446 27.576 21.7608 27.75 20 27.75V29.25C21.8586 29.25 23.6443 29.0664 25.3032 28.7283L25.0036 27.2585ZM14.6968 28.7283C16.3557 29.0664 18.1414 29.25 20 29.25V27.75C18.2392 27.75 16.554 27.576 14.9964 27.2585L14.6968 28.7283ZM25.3032 11.2717C23.6443 10.9336 21.8586 10.75 20 10.75V12.25C21.7608 12.25 23.446 12.424 25.0036 12.7415L25.3032 11.2717ZM14.9964 12.7415C16.554 12.424 18.2392 12.25 20 12.25V10.75C18.1414 10.75 16.3557 10.9336 14.6968 11.2717L14.9964 12.7415ZM29.25 19.0365V20.9635H30.75V19.0365H29.25ZM9.25 19.0365V20.9635H10.75V19.0365H9.25ZM25.0036 12.7415C27.0557 13.1598 27.7702 13.3326 28.4914 14.2598L29.6754 13.3389C28.5634 11.9092 27.2689 11.6724 25.3032 11.2717L25.0036 12.7415ZM30.75 19.0365C30.75 16.4228 30.7836 14.7637 29.6754 13.3389L28.4914 14.2598C29.2164 15.192 29.25 16.2386 29.25 19.0365H30.75ZM14.9964 27.2585C12.9443 26.8402 12.2298 26.6674 11.5086 25.7402L10.3246 26.6611C11.4366 28.0908 12.7311 28.3276 14.6968 28.7283L14.9964 27.2585ZM9.25 20.9635C9.25 23.5772 9.21641 25.2363 10.3246 26.6611L11.5086 25.7402C10.7836 24.808 10.75 23.7614 10.75 20.9635H9.25ZM14.6968 11.2717C12.7311 11.6724 11.4366 11.9092 10.3246 13.3389L11.5086 14.2598C12.2298 13.3326 12.9443 13.1598 14.9964 12.7415L14.6968 11.2717ZM10.75 19.0365C10.75 16.2386 10.7836 15.192 11.5086 14.2598L10.3246 13.3389C9.21641 14.7637 9.25 16.4228 9.25 19.0365H10.75ZM25.3032 28.7283C27.269 28.3276 28.5634 28.0908 29.6754 26.6611L28.4914 25.7402C27.7702 26.6674 27.0557 26.8402 25.0036 27.2585L25.3032 28.7283ZM29.25 20.9635C29.25 23.7614 29.2164 24.808 28.4914 25.7402L29.6754 26.6611C30.7836 25.2363 30.75 23.5772 30.75 20.9635H29.25ZM21.8068 22.8809C22.5798 22.455 23.2175 22.1049 23.6741 21.781C24.1233 21.4623 24.5495 21.0673 24.6906 20.4913L23.2337 20.1344C23.2264 20.1643 23.1836 20.2898 22.8061 20.5577C22.4359 20.8203 21.8891 21.1229 21.0829 21.5672L21.8068 22.8809ZM21.0829 18.4328C21.8891 18.8771 22.4359 19.1797 22.8061 19.4423C23.1836 19.7102 23.2264 19.8357 23.2337 19.8656L24.6906 19.5087C24.5495 18.9327 24.1233 18.5377 23.6741 18.219C23.2175 17.8951 22.5798 17.545 21.8068 17.1191L21.0829 18.4328ZM24.6906 20.4913C24.7698 20.168 24.7698 19.832 24.6906 19.5087L23.2337 19.8656C23.2554 19.9545 23.2554 20.0455 23.2337 20.1344L24.6906 20.4913ZM16.25 20C16.25 20.881 16.2484 21.6179 16.3238 22.1849C16.4001 22.7592 16.5742 23.329 17.0665 23.7271L18.0095 22.5606C17.9638 22.5237 17.8689 22.4246 17.8107 21.9872C17.7516 21.5425 17.75 20.9249 17.75 20H16.25ZM21.0829 21.5672C20.2082 22.0492 19.6072 22.3791 19.1386 22.5731C18.6695 22.7674 18.4702 22.7641 18.363 22.736L17.9827 24.187C18.571 24.3412 19.149 24.1924 19.7125 23.959C20.2767 23.7254 20.964 23.3454 21.8068 22.8809L21.0829 21.5672ZM17.0665 23.7271C17.3346 23.9438 17.6484 24.0994 17.9827 24.187L18.363 22.736C18.226 22.7001 18.1058 22.6384 18.0095 22.5606L17.0665 23.7271ZM17.75 20C17.75 19.0751 17.7516 18.4575 17.8107 18.0128C17.8689 17.5754 17.9638 17.4763 18.0095 17.4394L17.0665 16.2729C16.5742 16.671 16.4001 17.2408 16.3238 17.8151C16.2484 18.3821 16.25 19.119 16.25 20H17.75ZM21.8068 17.1191C20.964 16.6546 20.2767 16.2746 19.7125 16.041C19.149 15.8076 18.571 15.6588 17.9827 15.813L18.363 17.264C18.4702 17.2359 18.6695 17.2326 19.1386 17.4269C19.6072 17.6209 20.2082 17.9508 21.0829 18.4328L21.8068 17.1191ZM18.0095 17.4394C18.1058 17.3616 18.226 17.2999 18.363 17.264L17.9827 15.813C17.6484 15.9006 17.3346 16.0562 17.0665 16.2729L18.0095 17.4394Z" fill="white"/>
</svg>
